<?xml version="1.0" encoding="UTF-8" standalone="no"?>
<!-- Created with Inkscape (http://www.inkscape.org/) -->

<svg
   width="148.83775mm"
   height="97.406761mm"
   viewBox="0 0 148.83775 97.406761"
   version="1.1"
   id="svg1"
   xml:space="preserve"
   sodipodi:docname="swish.svg"
   inkscape:version="1.4.2 (ebf0e940d0, 2025-05-08)"
   inkscape:export-filename="swish.svg"
   inkscape:export-xdpi="96"
   inkscape:export-ydpi="96"
   xmlns:inkscape="http://www.inkscape.org/namespaces/inkscape"
   xmlns:sodipodi="http://sodipodi.sourceforge.net/DTD/sodipodi-0.dtd"
   xmlns="http://www.w3.org/2000/svg"
   xmlns:svg="http://www.w3.org/2000/svg"><sodipodi:namedview
     id="namedview1"
     pagecolor="#ffffff"
     bordercolor="#000000"
     borderopacity="0.25"
     inkscape:showpageshadow="2"
     inkscape:pageopacity="0.0"
     inkscape:pagecheckerboard="0"
     inkscape:deskcolor="#d1d1d1"
     inkscape:document-units="mm"
     inkscape:zoom="0.39442553"
     inkscape:cx="91.271983"
     inkscape:cy="488.05158"
     inkscape:window-width="1590"
     inkscape:window-height="990"
     inkscape:window-x="0"
     inkscape:window-y="0"
     inkscape:window-maximized="1"
     inkscape:current-layer="svg1" /><defs
     id="defs1" /><g
     id="layer1"
     transform="translate(-31.523363,-92.237256)"><path
       style="fill:#000000;stroke-width:0.0672421"
       d="m 31.523363,189.64402 c 6.268748,-13.89124 16.144123,-33.94911 28.96586,-48.19668 1.13649,-1.26287 4.53836,-4.72741 5.58339,-5.68625 4.73915,-4.34829 9.50958,-7.88882 14.96358,-11.10574 3.30824,-1.95129 7.422011,-4.00922 10.856371,-5.43096 6.97216,-2.8863 14.713176,-5.03749 25.282986,-7.02605 2.98188,-0.56099 5.52717,-1.00603 10.38889,-1.81643 12.14211,-2.024 17.22151,-3.00687 22.76141,-4.40437 9.31183,-2.34901 29.57151,-14.009554 29.76646,-13.735533 0.22505,0.316352 2.49974,10.630813 -11.555,21.805633 -5.95391,4.73391 -12.93356,7.64083 -21.55105,9.79753 -5.32155,1.33182 -9.46972,2.05027 -21.58469,3.73835 -9.15826,1.2761 -14.12183,2.20708 -19.2312,3.60703 -7.018631,1.92307 -12.954501,4.49422 -17.718271,7.67473 -2.833,1.89144 -5.580901,4.25318 -7.487851,6.43562 -0.81038,0.92743 -0.88294,1.03141 -0.48032,0.68835 0.18491,-0.15757 0.86574,-0.68798 1.51294,-1.1787 6.351171,-4.81546 14.484881,-7.88531 25.329222,-9.55982 4.40155,-0.67965 8.30257,-1.06681 16.29357,-1.61705 8.93239,-0.61506 12.94328,-1.00422 17.38206,-1.68648 10.10759,-1.55358 17.69651,-4.26656 23.90264,-8.54501 0.38727,-0.267 0.71282,-0.47677 0.72342,-0.46618 0.0335,0.0335 -0.64857,1.9847 -0.957,2.73777 -3.36136,8.20701 -11.17253,15.19775 -21.60025,19.33151 -5.7101,2.26361 -12.184,3.66133 -21.13192,4.56239 -2.25204,0.22679 -5.08881,0.45117 -10.2544,0.81113 -6.12284,0.42667 -9.52797,0.70893 -12.204421,1.01169 -13.27428,1.50152 -23.109821,4.85144 -30.427001,10.36322 -1.39723,1.05248 -3.93246,3.27269 -3.84123,3.36393 0.0151,0.0151 0.50543,-0.24876 1.08954,-0.58644 6.86587,-3.96928 13.41386,-6.30446 20.638061,-7.36008 4.03566,-0.58969 7.86689,-0.83444 16.339801,-1.0438 3.94498,-0.0975 7.05608,-0.19724 8.60698,-0.27599 0.73965,-0.0376 4.58861,-0.28397 8.41636,-0.3167 7.81227,-0.0668 9.68341,-0.13623 12.80793,-0.47512 5.5582,-0.60284 9.71915,-1.88425 12.79567,-3.94056 0.47087,-0.31472 0.88639,-0.5911 0.92337,-0.61416 0.0691,-0.0431 -0.0354,0.0956 -0.90166,1.19694 -1.78972,2.27541 -4.34043,4.77543 -6.87538,6.73876 -8.54809,6.62053 -20.13251,10.82648 -34.48456,12.52031 -4.1164,0.48582 -7.156196,0.7234 -15.566506,1.21661 -12.608001,0.73938 -17.280271,1.27084 -24.812301,2.82236 -6.8024,1.40123 -12.46944,3.03436 -17.29793,4.98494 -9.819408,3.96676 -12.776474,6.33533 -15.36757,9.6593 z"
       id="path1" /></g></svg>
